<svg width="110" height="39" viewBox="0 0 110 39" fill="none" xmlns="http://www.w3.org/2000/svg">
<g filter="url(#filter0_d_84_442)">
<path d="M90.8041 5.38873C87.8967 5.38854 85.0553 6.13537 82.6382 7.53479C80.221 8.93421 78.337 10.9234 77.2244 13.2507C76.1118 15.578 75.8205 18.139 76.3875 20.6097C76.9545 23.0805 78.3542 25.3501 80.4097 27.1315C82.4651 28.9128 85.084 30.126 87.9356 30.6175C90.7858 31.109 93.7414 30.8569 96.4276 29.893C99.1128 28.9289 101.408 27.2964 103.023 25.2018C104.639 23.1072 105.501 20.6447 105.501 18.1255C105.496 14.7489 103.947 11.5117 101.192 9.12397C98.4366 6.73623 94.7006 5.39294 90.8041 5.38873ZM90.8041 25.9593C89.0163 25.9595 87.2687 25.5002 85.7816 24.6395C84.2948 23.7789 83.136 22.5555 82.4516 21.1241C81.7672 19.6927 81.5881 18.1175 81.9367 16.5978C82.2854 15.0782 83.1463 13.6823 84.4105 12.5866C85.6747 11.4909 87.2858 10.7447 89.0393 10.4424C90.7927 10.14 92.6103 10.2951 94.2617 10.888C95.9142 11.4809 97.3261 12.485 98.3197 13.7733C99.3122 15.0616 99.8428 16.5762 99.8428 18.1255C99.8394 20.2021 98.8859 22.1926 97.1909 23.661C95.4971 25.1294 93.2005 25.9559 90.8041 25.9593ZM57.157 5.38873C54.25 5.38873 51.4083 6.13574 48.9913 7.53528C46.5743 8.93482 44.6904 10.924 43.578 13.2514C42.4655 15.5788 42.1746 18.1396 42.7416 20.6103C43.3088 23.081 44.7085 25.3505 46.764 27.1318C48.8195 28.9131 51.4384 30.1261 54.2895 30.6176C57.1406 31.109 60.0958 30.8569 62.7815 29.8929C65.4672 28.9288 67.7626 27.2963 69.3777 25.2017C70.9926 23.1071 71.8547 20.6446 71.8547 18.1255C71.8501 14.7487 70.3001 11.5114 67.5447 9.12362C64.7893 6.73586 61.0537 5.39268 57.157 5.38873ZM57.157 25.9593C55.4911 25.96 53.8576 25.5619 52.4364 24.8088C51.0153 24.0557 49.8619 22.977 49.1035 21.6917C48.3453 20.4064 48.0115 18.9645 48.1392 17.5253C48.2668 16.086 48.8508 14.7052 49.8269 13.5354C50.803 12.3657 52.133 11.4524 53.6702 10.8963C55.2075 10.3402 56.8921 10.1631 58.5381 10.3844C60.1843 10.6057 61.7277 11.2168 62.9983 12.1503C64.2689 13.0839 65.2172 14.3035 65.7384 15.6745H57.157V20.5766H65.7384C65.1414 22.141 63.9913 23.503 62.4509 24.4691C60.9106 25.4353 59.0584 25.9566 57.157 25.9593Z" fill="#FF70D9"/>
<path d="M88.0206 30.1248L88.0206 30.1248C85.2528 29.6478 82.7193 28.4715 80.7372 26.7536L80.4241 27.1149L80.7372 26.7536C78.7556 25.0364 77.4163 22.8576 76.8749 20.4979C76.3336 18.1394 76.6107 15.6937 77.6755 13.4664C78.741 11.2375 80.5511 9.32082 82.8887 7.96751C85.2265 6.61404 87.9807 5.88859 90.8039 5.88873C94.5891 5.89289 98.2066 7.19848 100.864 9.50181C103.52 11.8032 104.996 14.9069 105.001 18.1262C105.001 20.5289 104.179 22.8849 102.627 24.8964L102.627 24.8966C101.075 26.9095 98.8613 28.488 96.2587 29.4224C93.6549 30.3567 90.7868 30.6018 88.0206 30.1248ZM90.8042 26.4593H90.8048C93.3123 26.4558 95.7273 25.5916 97.5184 24.0388C99.3128 22.4841 100.339 20.3601 100.343 18.1264V18.1255C100.343 16.4599 99.7719 14.8391 98.7158 13.4681L98.7156 13.4679C97.6591 12.098 96.1656 11.0399 94.4305 10.4174C92.6966 9.79489 90.7915 9.63285 88.9543 9.94965C87.1171 10.2664 85.4205 11.0495 84.083 12.2088L84.4105 12.5866L84.083 12.2088C82.7449 13.3686 81.8236 14.8553 81.4493 16.486L81.4493 16.486C81.075 18.1179 81.2683 19.8084 82.0005 21.3398C82.732 22.8696 83.9647 24.1655 85.5311 25.0723L85.5311 25.0723C87.0975 25.9788 88.9321 26.4595 90.8042 26.4593ZM49.2419 7.96798L49.2419 7.96797C51.5795 6.6144 54.334 5.88877 57.1567 5.88873C60.9422 5.89262 64.5593 7.1981 67.2173 9.50148C69.8731 11.803 71.3503 14.9067 71.3547 18.1262C71.3545 20.5288 70.5327 22.8848 68.9817 24.8964C67.4295 26.9094 65.2158 28.4879 62.6126 29.4223C60.0094 30.3567 57.1416 30.6019 54.3744 30.1249C51.6072 29.6479 49.0737 28.4718 47.0915 26.7539L46.7683 27.1269L47.0915 26.7539C45.11 25.0368 43.7706 22.8581 43.229 20.4985C42.6877 18.14 42.9645 15.6944 44.0291 13.467C45.0945 11.2382 46.9044 9.32141 49.2419 7.96798ZM57.1572 26.4593H57.1577C59.1484 26.4565 61.0932 25.9111 62.7166 24.8927C64.3406 23.8741 65.5665 22.4296 66.2055 20.7548L66.4643 20.0766H65.7384H57.657V16.1745H65.7384H66.4634L66.2057 15.4968C65.6477 14.029 64.6365 12.7335 63.2944 11.7474C61.9526 10.7616 60.3293 10.1207 58.6048 9.88884C56.8803 9.657 55.1143 9.84223 53.5001 10.4261L53.5001 10.4261C51.886 11.01 50.4799 11.9724 49.443 13.2151L49.443 13.2151C48.4054 14.4587 47.7783 15.9346 47.6411 17.4811C47.5039 19.028 47.8635 20.5737 48.6729 21.9458L48.6729 21.9458C49.4818 23.3168 50.7062 24.4578 52.2023 25.2506L52.2023 25.2506C53.6983 26.0433 55.4127 26.46 57.1572 26.4593Z" stroke="black"/>
</g>
<path d="M33.1773 28.9802C32.5152 28.0944 31.5358 27.4133 30.1145 27.6354C26.8292 28.1487 28.5745 25.582 26.2132 26.6087C24.3241 27.4301 22.9621 29.7572 22.5172 30.8181C22.3803 30.1678 21.8601 28.7442 20.8745 28.2514C19.6425 27.6354 19.2318 28.6621 18.5131 27.6354C17.7945 26.6087 17.7945 25.1714 17.1785 23.734C16.5625 22.2967 19.2318 20.1407 20.8745 20.962C22.5172 21.7834 23.5438 21.27 24.3652 22.502C25.1865 23.734 26.2132 25.274 26.2132 20.962C26.2132 16.65 28.2665 14.6993 29.1905 14.802C30.1145 14.9047 32.9892 13.8778 32.4759 12.8513C31.9625 11.8249 29.1905 11.3113 29.1905 10.3873C29.1905 9.46332 30.4225 7.51289 29.1905 6.58889C27.9585 5.66489 24.8785 3.81688 22.5172 4.02221C20.1558 4.22755 19.4283 5.15216 19.4283 5.97349C19.4283 6.79483 22.5172 8.33507 20.8745 9.36119C19.2318 10.3873 13.8931 12.0295 13.8931 10.3873C13.8931 8.74519 13.5851 5.25451 14.6118 5.25451C15.6385 5.25451 15.9465 2.68784 16.5625 2.79051C17.1785 2.89317 19.7452 1.76449 20.8745 2.2775C21.2207 2.43478 22.3583 2.13856 23.6392 1.60479M33.1773 28.9802C35.3333 26.0648 36.608 22.4581 36.608 18.5537C36.608 10.4452 31.1104 3.62088 23.6392 1.60479M33.1773 28.9802C29.98 33.3038 24.8446 36.1073 19.0544 36.1073C18.0235 36.1073 17.0135 36.0185 16.0314 35.848M16.0314 35.848C16.164 35.0843 16.3376 34.4532 16.5625 34.1034C17.4865 32.6661 20.5665 33.6927 20.8745 32.9741C21.1825 32.2554 19.8478 31.4341 18.5131 30.8181C17.1785 30.2021 14.9198 29.5861 14.6118 26.6087C14.3038 23.6314 12.8665 24.1447 12.5585 23.734C12.2505 23.3234 8.65711 22.194 7.52746 20.1407C6.39781 18.0874 7.52777 14.5967 7.52746 13.6727C7.52724 13.0195 4.69508 12.3184 2.7846 11.9516M16.0314 35.848C7.7773 34.4152 1.50073 27.2174 1.50073 18.5537C1.50073 16.2184 1.95675 13.9896 2.7846 11.9516M2.7846 11.9516C5.39347 5.52883 11.695 1 19.0544 1C20.6406 1 22.1777 1.21039 23.6392 1.60479" stroke="#FF70D9" stroke-width="1.5" stroke-linecap="square" stroke-linejoin="round"/>
<defs>
<filter id="filter0_d_84_442" x="38.4592" y="5.38873" width="71.0415" height="33.4736" filterUnits="userSpaceOnUse" color-interpolation-filters="sRGB">
<feFlood flood-opacity="0" result="BackgroundImageFix"/>
<feColorMatrix in="SourceAlpha" type="matrix" values="0 0 0 0 0 0 0 0 0 0 0 0 0 0 0 0 0 0 127 0" result="hardAlpha"/>
<feOffset dy="4"/>
<feGaussianBlur stdDeviation="2"/>
<feComposite in2="hardAlpha" operator="out"/>
<feColorMatrix type="matrix" values="0 0 0 0 0 0 0 0 0 0 0 0 0 0 0 0 0 0 0.25 0"/>
<feBlend mode="normal" in2="BackgroundImageFix" result="effect1_dropShadow_84_442"/>
<feBlend mode="normal" in="SourceGraphic" in2="effect1_dropShadow_84_442" result="shape"/>
</filter>
</defs>
</svg>
